PathFileType	4	(X/Y/Z)	C:\Users\°ÂÌØÂü\Desktop\20210112\bx_y_10_902-Unnamed.trc
DataRate	CameraRate	NumFrames	NumMarkers	Units	OrigDataRate	OrigDataStartFrame	OrigNumFrames
50.00	50.00	       8	0	mm	50.00	452	       516
Frame#	Time	
		

452	9.020	-675.88165	201.30843	533.10736	-631.69855	274.08945	875.70801	-719.22540	75.60207	217.16667	-586.26489	-9.63599	801.08612	-719.55536	247.79788	646.83179	-676.35425	54.51851	159.07687	-727.36951	242.94037	578.38312	-769.69458	253.61597	505.04471	-598.57880	98.51632	1435.58142	-685.97430	285.65170	1538.03149	-663.82263	-68.57059	162.14565	-712.91022	152.20747	216.55171	-771.14520	223.94484	205.51178	-622.69647	-79.57548	158.18498	-882.53406	296.09598	144.57982	-673.95642	14.58490	520.59723	-603.66193	19.46763	167.14294	-560.57538	-39.96879	163.38420	-676.25800	172.56097	156.87964	-595.01056	221.23727	172.96187	-665.62970	298.53192	160.98160	-628.11285	305.97491	161.72923	-560.89557	260.49887	165.26767	-528.39661	304.42844	146.85262	-702.07159	106.69881	1852.00903	-649.14722	-74.36576	870.04498	-704.38586	-33.39694	618.80200	-517.90173	-72.60536	142.96407	-687.89661	-73.84749	1546.14221	-587.57050	-13.81903	1048.19006	-768.11951	-8.47914	207.07227	-796.29584	51.74302	174.04936	-797.64569	174.52643	183.40904	-769.11359	-40.41842	488.58469	-876.03320	-78.59757	141.50241	-693.17957	138.89888	574.03247	-697.83960	76.00243	577.46698	-721.59875	-29.75129	567.62384	-572.08868	211.52078	1066.07288				-784.13934	93.41649	1060.04797	-580.15228	207.09624	811.93152				-697.22961	-55.24981	719.67480	
453	9.040	-676.24219	201.20073	533.22144	-632.23199	273.85379	875.66193	-719.30969	75.51710	217.01460	-586.97943	-9.56598	801.14575	-719.85162	247.57634	646.70227	-676.40021	54.36830	158.72455	-727.74121	243.06201	578.41882	-770.03223	253.66241	504.86957	-599.69604	98.18447	1435.57898	-687.09473	285.30124	1537.82068	-663.99475	-68.59965	161.92880	-713.03754	152.13152	216.49496	-771.24701	224.02408	205.32997	-622.63275	-79.47629	157.98593	-882.58789	296.13925	144.61490	-674.38794	14.29087	520.58258	-603.72638	19.42517	167.06335	-560.56793	-40.00375	163.35295	-676.04071	172.24582	156.99648	-595.05341	221.36890	172.99332	-665.62970	298.53192	160.98160	-628.16473	305.97488	161.65714	-560.89557	260.49887	165.26767	-528.39661	304.42844	146.85262	-702.22028	106.65289	1852.09106	-649.51379	-74.53384	870.31659	-704.75153	-33.69416	618.68860	-517.91675	-72.51182	142.90181	-688.68030	-74.02127	1546.35352	-588.39050	-14.03073	1048.24390	-768.04749	-8.50768	207.01741	-796.51489	51.47242	174.26216	-797.81061	174.42433	183.38861	-769.23645	-40.22041	488.55157	-876.05151	-78.64049	141.43311	-693.17957	138.89888	574.03247	-698.20563	75.83015	577.31580	-721.72809	-30.02527	567.59137	-572.93402	211.09810	1066.11841	-681.86542	269.29251	749.93719	-785.09924	93.05476	1059.80017	-580.76709	206.95065	812.23096				-697.69531	-55.39517	719.92712	
454	9.060	-676.24219	201.20073	533.22144	-632.76642	273.38834	875.66638	-719.09650	75.47664	217.08397	-587.22339	-9.94829	801.36096	-720.26947	247.44858	646.42859	-676.62982	54.64985	158.59709	-727.85419	242.86041	578.26788	-770.30499	253.53548	504.80774	-600.05670	98.05898	1435.80676	-688.06995	285.90253	1538.08948	-663.92291	-68.71075	162.09061	-712.96973	152.01675	216.72397	-771.26154	223.87473	205.49315	-622.63275	-79.47629	157.98593	-882.65778	296.13382	144.58998	-674.69556	14.13689	520.43219	-603.67621	19.42406	166.98827	-560.53558	-39.95317	163.42281	-675.94836	172.31931	156.92255	-595.01056	221.23727	172.96187	-665.67804	298.44580	160.76385	-628.13342	306.03680	161.67418	-560.89557	260.49887	165.26767	-528.39606	304.35452	146.88464	-702.40955	106.55956	1852.26660	-650.37134	-74.10144	869.62994	-705.33521	-33.79257	619.06531	-517.84698	-72.36047	142.79665	-689.13391	-74.03153	1546.63110	-589.23724	-14.29808	1048.65320	-767.52045	-8.30065	206.70146	-796.34796	51.47519	174.16608	-797.72253	174.36327	183.37993	-769.38818	-40.08569	488.43494	-876.02838	-78.54763	141.55200	-693.17957	138.89888	574.03247	-699.13965	75.34441	576.82666	-721.42236	-30.31106	567.63843	-573.73358	210.68649	1066.35120	-682.30957	268.92725	749.61957	-785.99683	92.77103	1059.67590	-581.56409	206.73442	812.07465				-698.19427	-55.55107	719.97412	
455	9.080	-676.48169	201.16992	533.24384	-633.18231	273.45013	875.81714	-719.30420	75.75256	217.09891	-587.96613	-9.79699	801.15039	-720.37329	247.24315	646.36407	-676.00732	54.64194	158.64862	-728.07788	242.59723	578.32318	-770.35144	253.47855	504.76175	-600.74066	97.80286	1435.92627	-689.20825	285.24646	1538.02332	-663.99799	-68.83913	162.12877	-713.31183	152.13742	216.61760	-771.28882	223.89099	205.42180	-622.73492	-79.52197	158.19658	-882.58704	296.15555	144.64662	-674.84698	14.20604	520.35431	-603.74231	19.41650	166.92809	-560.53558	-39.95317	163.42281	-676.09521	172.42563	156.78607	-594.91486	221.35281	172.98434	-665.64899	298.49030	160.82545	-628.22662	305.91913	161.87769	-560.87781	260.41241	165.15469	-528.39374	304.22769	146.72768	-702.68475	106.39812	1852.34705	-650.92053	-74.18453	869.90656	-704.92078	-34.68179	619.66016	-517.87378	-72.35021	142.72668	-689.79895	-74.23756	1546.90894	-589.86786	-14.28021	1048.67432	-767.99963	-8.60220	206.90399	-796.51489	51.47242	174.26216	-797.73737	174.42560	183.48221	-769.46674	-40.20499	488.33936	-876.06970	-78.48415	141.55768	-693.46136	138.63731	573.96826	-699.21222	75.22458	576.99500	-722.39954	-30.15099	567.09344	-574.39197	210.62714	1066.67407	-682.93866	268.59241	749.57904	-786.37769	92.66888	1059.53406	-581.63818	206.63292	812.77673				-698.71082	-55.40500	719.68347	
456	9.100	-677.00757	200.92200	532.98993	-633.91394	272.90723	875.62000	-719.43549	75.73633	217.16937	-588.47687	-10.39183	801.31390	-720.72052	246.99809	646.11450	-676.32330	54.34969	158.96019	-728.22437	242.85359	578.34949	-770.48163	253.23997	504.94003	-601.24335	97.90484	1436.16260	-689.76929	285.06531	1538.04053	-664.00171	-68.76711	162.07571	-713.01935	151.92311	216.77029	-771.26154	223.87473	205.49315	-622.69647	-79.57548	158.18498	-882.63641	296.19785	144.62160	-674.85846	14.11174	520.22485	-603.47046	19.47968	166.96715	-560.44885	-39.99355	163.36665	-676.09521	172.42563	156.78607	-594.96954	221.40515	173.12949	-665.44830	298.49539	160.90953	-628.22107	306.02750	161.83905	-561.01929	260.46994	165.41293	-528.33508	304.18222	146.69463	-702.96393	106.14552	1852.45007	-651.69836	-74.96848	870.11639	-705.88641	-33.93154	618.86932	-517.92889	-72.26451	142.93159	-690.76007	-74.60693	1547.01221	-590.68243	-14.34835	1048.77844	-767.53998	-8.60211	206.58664	-796.51489	51.47242	174.26216	-797.60150	174.34177	183.09550	-769.89233	-40.45845	488.48782	-876.02838	-78.54763	141.55200	-693.46136	138.63731	573.96826	-699.18378	75.30459	576.81110	-722.72266	-30.41121	567.08307	-575.51648	210.49495	1066.50037	-682.91333	268.65054	749.66614	-787.26202	92.12616	1059.56982	-582.10614	206.54988	813.38159				-699.12628	-55.53556	719.68298	
457	9.120	-677.09534	200.95035	533.04974	-634.32379	272.69504	875.41241	-719.51318	75.26727	216.92987	-588.57672	-11.32471	801.54456	-720.96185	247.08427	646.03931	-676.20581	54.46510	158.91760	-728.19397	242.61903	578.11853	-770.69635	253.14455	504.87872	-602.23621	97.56233	1436.20886	-691.78522	283.87494	1537.32227	-664.04309	-68.76556	162.02124	-713.10150	152.19846	216.45592	-771.26154	223.87473	205.49315	-622.63330	-79.55227	158.28288	-882.64172	295.97809	144.42909	-674.84698	14.20604	520.35431	-603.59131	19.44333	166.93073	-560.58881	-40.12266	163.24377	-676.09521	172.42563	156.78607	-594.99255	221.29753	173.03105	-665.59094	298.39670	160.95747	-628.16473	305.97488	161.65714	-560.89844	260.36435	165.24002	-528.33789	304.38300	146.81956	-703.38440	106.07968	1852.45630	-652.08820	-74.88996	870.24896	-706.08911	-33.89051	618.53326	-517.87378	-72.35021	142.72668	-691.16693	-74.64752	1547.06921	-591.89618	-14.46695	1048.93542	-767.58649	-8.30137	206.64183	-796.31104	51.63041	173.84479	-797.60150	174.34177	183.09550	-769.79242	-40.40564	488.30380	-876.05151	-78.64049	141.43311	-693.46136	138.63731	573.96826	-699.51361	75.19134	577.02283	-723.11841	-30.65369	567.36914	-576.23065	209.86665	1066.35669	-683.05573	268.85431	749.74445	-788.21521	91.85795	1059.41809	-582.40363	206.35684	813.46869				-699.82526	-55.72480	719.47540	
458	9.140	-677.23602	200.98491	533.03131	-634.81805	272.81622	875.86768	-719.65808	75.36881	216.82481	-589.04553	-11.50326	801.70148	-721.10114	246.82634	646.20856	-676.14832	54.73986	159.19147	-728.19397	242.61903	578.11853	-770.95740	253.03804	504.63589	-602.88031	97.37105	1436.06323	-692.12793	283.63129	1537.22375	-663.99799	-68.83913	162.12877	-712.99738	152.06148	216.50093	-771.20026	223.95583	205.25227	-622.73492	-79.52197	158.19658	-882.57581	295.99649	144.46762	-675.06433	13.88874	520.12616	-603.77612	19.50666	167.05562	-560.53217	-40.01316	163.37611	-676.09521	172.42563	156.78607	-595.07635	221.26126	172.89487	-665.56482	298.44418	161.06789	-628.22662	305.91913	161.87769	-560.89557	260.49887	165.26767	-528.47675	304.41357	146.79608	-703.79022	105.69213	1852.73181	-652.51367	-75.59362	870.57013	-706.58636	-34.39562	618.86780	-517.91064	-72.25205	142.97351	-692.04846	-74.83397	1547.44067	-592.44836	-14.55229	1048.90771	-768.22711	-8.92035	206.83588	-796.41663	51.44332	174.03160	-797.76941	174.25938	183.23540	-769.94171	-40.64141	488.39227	-876.03320	-78.59757	141.50241	-693.83228	138.43039	574.11310	-699.92725	75.09604	577.03772	-723.51550	-30.53948	567.16919	-576.83563	209.56543	1066.72937	-683.74780	269.35345	750.44702	-788.95691	91.68417	1059.28479	-582.97357	206.08286	813.34094				-700.38287	-56.29919	719.64130	
459	9.160	-677.32245	200.91452	533.08344	-635.33368	272.88297	876.35431	-719.84229	75.42376	216.66841	-590.63159	-10.88399	801.77789	-721.24316	246.68393	646.01440	-676.66394	54.75621	158.87817	-728.67950	242.68129	578.11633	-771.14545	253.17537	504.60165	-603.53711	97.12858	1436.62158	-692.71851	284.17166	1537.91418	-663.98712	-68.68796	162.02116	-713.03430	151.97668	216.50139	-771.28882	223.89099	205.42180	-622.58942	-79.50871	158.20590	-882.59796	296.23630	144.69611	-675.28967	13.89449	520.16577	-603.83380	19.54347	166.99879	-560.53644	-40.19873	163.41353	-676.13043	172.53004	156.79590	-594.96954	221.40515	173.12949	-665.53845	298.47263	160.85532	-628.10052	305.95602	161.59676	-560.84515	260.49762	165.33218	-528.35101	304.24271	146.94629	-704.01605	105.46886	1852.86011	-653.62683	-75.45835	870.32379	-706.89056	-34.63708	618.64001	-517.90192	-72.36453	143.04860	-692.65741	-75.04587	1547.55139	-593.05566	-14.93430	1048.98206	-768.01428	-8.77955	206.80646	-796.39185	51.38362	173.97847	-797.59424	174.26390	183.23557	-770.29346	-41.09723	488.35236	-876.03320	-78.59757	141.50241	-693.83228	138.43039	574.11310	-700.44183	74.97635	576.92120	-723.79663	-30.46073	567.43921	-577.81921	209.41467	1066.86719	-683.74780	269.35345	750.44702	-789.63171	91.79153	1059.37390	-583.73126	205.83545	813.26215				-700.85236	-56.50655	719.61749	
